<?xml version="1.0" encoding="UTF-8"?>
<svg id="Layer_1" data-name="Layer 1" xmlns="http://www.w3.org/2000/svg" width="200" height="200" xmlns:xlink="http://www.w3.org/1999/xlink" viewBox="0 0 200 200">
  <defs>
    <style>
      .cls-1 {
        fill: url(#linear-gradient);
      }

      .cls-1, .cls-2 {
        stroke-width: 0px;
      }

      .cls-2 {
        fill: #c45555;
      }
    </style>
    <linearGradient id="linear-gradient" x1="-51.64" y1="190.18" x2="287.01" y2="-2.23" gradientUnits="userSpaceOnUse">
      <stop offset=".29" stop-color="#ffb92c"/>
      <stop offset="1" stop-color="#c45555"/>
    </linearGradient>
  </defs>
  <path class="cls-2" d="M68.08,122.59c4.17,2.66,9.11,4.23,14.42,4.23,14.82,0,26.84-12.02,26.84-26.84s-12.02-26.84-26.84-26.84c-5.35,0-10.31,1.58-14.5,4.28-.31.02-.63.02-.94.02-2.42,0-4.85-.49-6.9-1.86-2.99-1.99-4.29-6.45-4.77-11.01V21.54L7.74,48.87v102.25l47.64,27.34v-43.03c.49-4.57,1.78-9.02,4.77-11.01,2.06-1.37,4.48-1.86,6.9-1.86.34,0,.68,0,1.02.03Z"/>
  <path class="cls-1" d="M63.67,175.1v-39.19c.38-3.11,1.04-4.35,1.25-4.68.26-.13.6-.23,1-.29,5.1,2.74,10.78,4.18,16.58,4.18,19.37,0,35.13-15.76,35.13-35.13s-15.76-35.13-35.13-35.13c-5.83,0-11.53,1.45-16.64,4.21-.38-.06-.69-.16-.94-.28-.21-.33-.87-1.57-1.25-4.68V24.9L107.08,0l85.18,48.87v102.25l-85.18,48.87-43.4-24.9Z"/>
</svg>
