<?xml version="1.0" encoding="UTF-8"?>
<svg id="Layer_2" data-name="Layer 2" xmlns="http://www.w3.org/2000/svg" width="200" height="200" xmlns:xlink="http://www.w3.org/1999/xlink" viewBox="0 0 200 200">
  <defs>
    <style>
      .cls-1 {
        fill: url(#linear-gradient);
      }

      .cls-1, .cls-2, .cls-3 {
        stroke-width: 0px;
      }

      .cls-2 {
        fill: url(#linear-gradient-2);
      }

      .cls-3 {
        fill: #c45555;
      }
    </style>
    <linearGradient id="linear-gradient" x1="205.89" y1="-57.65" x2="-32.91" y2="297.89" gradientUnits="userSpaceOnUse">
      <stop offset="0" stop-color="#333"/>
      <stop offset="1" stop-color="#101010"/>
    </linearGradient>
    <linearGradient id="linear-gradient-2" x1="-22.24" y1="172.7" x2="250.75" y2="17.59" gradientUnits="userSpaceOnUse">
      <stop offset=".29" stop-color="#ffb92c"/>
      <stop offset="1" stop-color="#c45555"/>
    </linearGradient>
  </defs>
  <g id="Layer_1-2" data-name="Layer 1">
    <rect class="cls-1" width="200" height="200"/>
    <g>
      <path class="cls-3" d="M74.27,118.21c3.36,2.15,7.34,3.41,11.63,3.41,11.95,0,21.64-9.69,21.64-21.64s-9.69-21.64-21.64-21.64c-4.31,0-8.32,1.27-11.69,3.45-.25.01-.51.02-.76.02-1.95,0-3.91-.39-5.56-1.5-2.41-1.61-3.46-5.2-3.85-8.88v-34.68l-38.41,22.04v82.43l38.41,22.04v-34.68c.39-3.68,1.44-7.27,3.85-8.88,1.66-1.1,3.61-1.5,5.56-1.5.28,0,.55,0,.82.02Z"/>
      <path class="cls-2" d="M70.72,160.54v-31.59c.3-2.51.84-3.51,1.01-3.77.21-.1.48-.18.81-.23,4.11,2.21,8.69,3.37,13.36,3.37,15.62,0,28.32-12.7,28.32-28.32s-12.71-28.32-28.32-28.32c-4.7,0-9.29,1.17-13.42,3.39-.3-.05-.56-.13-.75-.23-.17-.27-.7-1.27-1.01-3.77v-31.59l34.99-20.08,68.67,39.4v82.43l-68.67,39.4-34.99-20.08Z"/>
    </g>
  </g>
</svg>
