<?xml version="1.0" encoding="UTF-8" standalone="no"?>
<svg
   width="24"
   height="24"
   viewBox="0 0 24 24"
   fill="none"
   version="1.1"
   sodipodi:docname="beatport.svg"
   inkscape:version="1.3 (0e150ed6c4, 2023-07-21)"
   stroke="currentColor"
   stroke-width="2"
   stroke-linecap="round"
   stroke-linejoin="round"
   id="beatport"
   xmlns:inkscape="http://www.inkscape.org/namespaces/inkscape"
   xmlns:sodipodi="http://sodipodi.sourceforge.net/DTD/sodipodi-0.dtd"
   xmlns="http://www.w3.org/2000/svg"
   xmlns:svg="http://www.w3.org/2000/svg">
  <defs
     id="defs1" />
  <sodipodi:namedview
     id="namedview1"
     showgrid="true"
     inkscape:current-layer="beatport">
    <inkscape:grid
       id="grid1"
       units="px"
       originx="0"
       originy="0"
       spacingx="0.5"
       spacingy="0.5"
       empcolor="#3f3fff"
       empopacity="0.25098039"
       color="#3f3fff"
       opacity="0.1254902"
       empspacing="5"
       dotted="false"
       gridanglex="30"
       gridanglez="30"
       visible="true" />
  </sodipodi:namedview>
  <circle
     id="circle"
     cy="16"
     cx="14.5"
     r="6" />
  <path
     d="m 3.5,16 4,-4 c 1,-1 2,-2 2,-4 V 2"
     id="curve"
     sodipodi:nodetypes="cccc" />
  <path
     d="m 20.69,16.66 c -0,1.04 -0.25,2.07 -0.73,2.99 -0.48,0.92 -1.17,1.71 -2.01,2.3 -0.84,0.59 -1.81,0.95 -2.82,1.07 -1.01,0.12 -2.04,-0.02 -2.98,-0.4 -0.95,-0.38 -1.79,-0.99 -2.46,-1.78 -0.67,-0.79 -1.13,-1.73 -1.36,-2.75 -0.23,-1.02 -0.21,-2.07 0.04,-3.08 0.26,-1.01 0.75,-1.94 1.44,-2.71 L 5.54,16.66 3.31,14.37 8.1,9.52 C 8.42,9.2 8.67,8.82 8.84,8.39 9.01,7.97 9.09,7.52 9.09,7.06 V 0.94 H 12.23 V 7.04 c 0.01,0.88 -0.15,1.76 -0.48,2.57 -0.33,0.82 -0.82,1.55 -1.44,2.17 l -0.14,0.14 c 0.9,-0.84 2.02,-1.39 3.22,-1.59 1.2,-0.2 2.43,-0.04 3.54,0.46 1.11,0.5 2.06,1.32 2.73,2.36 0.67,1.04 1.02,2.26 1.03,3.5 z m -2.85,0 c 0.01,-0.7 -0.19,-1.38 -0.56,-1.97 -0.37,-0.58 -0.91,-1.04 -1.54,-1.31 -0.63,-0.27 -1.32,-0.35 -1.99,-0.21 -0.67,0.13 -1.28,0.46 -1.77,0.96 -0.48,0.49 -0.81,1.12 -0.95,1.8 -0.14,0.68 -0.07,1.39 0.19,2.04 0.26,0.65 0.7,1.2 1.27,1.59 0.57,0.39 1.23,0.6 1.91,0.6 0.45,0 0.9,-0.08 1.31,-0.26 0.42,-0.17 0.8,-0.43 1.12,-0.75 0.32,-0.32 0.57,-0.71 0.75,-1.13 0.17,-0.42 0.26,-0.88 0.26,-1.34 z"
     id="original"
     fill="#009900"
     stroke="none"
     opacity="0.7" />
</svg>
